# xmcd CD database file
#
# Track frame offsets:
#	187
#	11792
#	23395
#	40517
#	53900
#	65192
#	76820
#	94347
#	109782
#	122717
#	136137
#	150120
#	162287
#	174067
#	184455
#	196470
#	202175
#	216200
#	226692
#
# Disc length: 3139 seconds
#
# Revision: 2
# Processed by: cddbd v1.4PL0 Copyright (c) Steve Scherf et al.
# Submitted via: CDex 1.50beta10
#
DISCID=f40c4113
DTITLE=The King's Singers - The Beatles Connection
DYEAR=1900
DGENRE=
TTITLE0=Penny Lane
TTITLE1=Mother Nature's Son
TTITLE2=Ob-la-di, Ob-la-da
TTITLE3=And I Love Her
TTITLE4=Help!
TTITLE5=Yesterday
TTITLE6=A Hard Day's Night
TTITLE7=Girl
TTITLE8=Got to Get You into My Life
TTITLE9=Back in the U.S.S.R.
TTITLE10=Elanor Rigby
TTITLE11=Blackbird
TTITLE12=Lady Madonna
TTITLE13=I'll Follow the Sun
TTITLE14=Honey Pie
TTITLE15=Can't Buy Me Love
TTITLE16=Michelle
TTITLE17=You've Got to Hide Your Love Away
TTITLE18=I Want to Hold Your Hand
EXTD=
EXTT0=
EXTT1=
EXTT2=
EXTT3=
EXTT4=
EXTT5=
EXTT6=
EXTT7=
EXTT8=
EXTT9=
EXTT10=
EXTT11=
EXTT12=
EXTT13=
EXTT14=
EXTT15=
EXTT16=
EXTT17=
EXTT18=
PLAYORDER=
